<svg xmlns="http://www.w3.org/2000/svg" xmlns:xlink="http://www.w3.org/1999/xlink" viewBox="0 0 255.5 274.57"><defs><style>.cls-1,.cls-4,.cls-6,.cls-7{fill:none;}.cls-2{clip-path:url(#clip-path);}.cls-3{fill:#c91e1d;}.cls-4,.cls-6,.cls-7{stroke:#fff;}.cls-4{stroke-linecap:round;stroke-linejoin:round;stroke-width:3.8px;}.cls-5{font-size:13.68px;fill:#fff;font-family:MyriadPro-Black, Myriad Pro;}.cls-6{stroke-width:0.19px;}.cls-7{stroke-width:1.52px;}</style><clipPath id="clip-path" transform="translate(0 0)"><rect class="cls-1" width="256" height="256"/></clipPath></defs><title>icon</title><g id="レイヤー_2" data-name="レイヤー 2"><g id="レイヤー_1-2" data-name="レイヤー 1"><g id="icon"><g class="cls-2"><rect class="cls-3" width="255.5" height="255.5"/><rect class="cls-3" x="98.98" y="37" width="131.52" height="158.89"/><rect class="cls-4" x="98.98" y="37" width="131.52" height="158.89"/><text class="cls-5" transform="translate(134.54 63.04)">Episode 1</text><polygon class="cls-6" points="141.18 57.32 137.87 57.32 137.87 55.84 141.38 55.84 141.38 53.82 135.39 53.82 135.39 63.04 141.57 63.04 141.57 61.01 137.87 61.01 137.87 59.32 141.18 59.32 141.18 57.32"/><g class="cls-2"><path class="cls-6" d="M145.32,59.26a1.05,1.05,0,0,1,0-.31,1,1,0,0,1,1-.86c.78,0,1.16.67,1.16,1.63s-.45,1.6-1.19,1.6a1,1,0,0,1-1-.81,2.48,2.48,0,0,1,0-.41Zm-2.47,6.49h2.47v-3.2h0a2,2,0,0,0,1.6.64c1.47,0,3.07-1.13,3.07-3.6,0-2.19-1.37-3.43-2.77-3.43a2.62,2.62,0,0,0-2.19,1h0l-.11-.86h-2.14c0,.63.06,1.39.06,2.3Z" transform="translate(0 0)"/><path class="cls-6" d="M152.44,55.61a1.17,1.17,0,1,0,0-2.34,1.17,1.17,0,1,0,0,2.34ZM153.67,63V56.31h-2.48V63Z" transform="translate(0 0)"/><path class="cls-6" d="M154.83,62.7a5.39,5.39,0,0,0,2.32.48c2.08,0,3.08-1,3.08-2.26,0-1-.52-1.66-1.85-2.08-.8-.26-1-.4-1-.62s.25-.38.68-.38a4,4,0,0,1,1.49.37l.39-1.67a5.23,5.23,0,0,0-2-.38c-1.78,0-2.93,1-2.93,2.31,0,.78.49,1.59,2,2.05.73.24.88.33.88.58s-.21.37-.74.37a4.47,4.47,0,0,1-1.86-.51Z" transform="translate(0 0)"/><path class="cls-6" d="M164.66,61.45c-.75,0-1.08-.76-1.08-1.78s.27-1.77,1.09-1.77,1,.84,1,1.77c0,1.09-.36,1.78-1,1.78Zm0,1.74a3.39,3.39,0,0,0,3.62-3.58,3.3,3.3,0,0,0-3.5-3.45A3.4,3.4,0,0,0,161,59.73a3.33,3.33,0,0,0,3.57,3.46Z" transform="translate(0 0)"/><path class="cls-6" d="M173.77,60a1.64,1.64,0,0,1,0,.45,1,1,0,0,1-1,.8c-.67,0-1.17-.53-1.17-1.57,0-.87.37-1.61,1.19-1.61a1,1,0,0,1,1,.86c0,.09,0,.22,0,.31Zm0-6.67v3.5h0a1.93,1.93,0,0,0-1.64-.65c-1.59,0-3,1.3-3,3.57,0,2.11,1.3,3.46,2.86,3.46a2.28,2.28,0,0,0,2-1h0l.1.9h2.2c0-.45-.05-1.29-.05-2.12V53.31Z" transform="translate(0 0)"/><path class="cls-6" d="M179.75,58.87a1.12,1.12,0,0,1,1.06-1.1,1,1,0,0,1,.95,1.1Zm4.19,1.67a4.48,4.48,0,0,0,.1-.93c0-1.85-.94-3.45-3.11-3.45a3.43,3.43,0,0,0-3.49,3.58c0,2.14,1.34,3.44,3.71,3.44a6.89,6.89,0,0,0,2.52-.43l-.32-1.64a6,6,0,0,1-1.83.26c-.88,0-1.66-.3-1.74-.83Z" transform="translate(0 0)"/><polygon class="cls-6" points="190.33 63.04 192.71 63.04 192.71 54.15 190.7 54.15 188.15 55.27 188.55 57.12 190.3 56.32 190.33 56.32 190.33 63.04"/></g><line class="cls-7" x1="114.57" y1="80.71" x2="157.9" y2="80.71"/><line class="cls-7" x1="114.57" y1="88.31" x2="157.9" y2="88.31"/><line class="cls-7" x1="114.57" y1="95.92" x2="157.9" y2="95.92"/><line class="cls-7" x1="114.57" y1="103.52" x2="157.9" y2="103.52"/><line class="cls-7" x1="114.57" y1="111.12" x2="157.9" y2="111.12"/><line class="cls-7" x1="114.57" y1="118.72" x2="157.9" y2="118.72"/><line class="cls-7" x1="114.57" y1="126.33" x2="157.9" y2="126.33"/><line class="cls-7" x1="114.57" y1="133.93" x2="157.9" y2="133.93"/><line class="cls-7" x1="114.57" y1="141.53" x2="157.9" y2="141.53"/><line class="cls-7" x1="114.57" y1="149.13" x2="157.9" y2="149.13"/><line class="cls-7" x1="114.57" y1="156.73" x2="157.9" y2="156.73"/><line class="cls-7" x1="167.78" y1="80.71" x2="211.11" y2="80.71"/><line class="cls-7" x1="167.78" y1="88.31" x2="211.11" y2="88.31"/><line class="cls-7" x1="167.78" y1="95.92" x2="211.11" y2="95.92"/><line class="cls-7" x1="167.78" y1="103.52" x2="211.11" y2="103.52"/><line class="cls-7" x1="167.78" y1="111.12" x2="211.11" y2="111.12"/><line class="cls-7" x1="167.78" y1="118.72" x2="211.11" y2="118.72"/><line class="cls-7" x1="167.78" y1="126.33" x2="211.11" y2="126.33"/><line class="cls-7" x1="167.78" y1="133.93" x2="211.11" y2="133.93"/><line class="cls-7" x1="167.78" y1="141.53" x2="211.11" y2="141.53"/><line class="cls-7" x1="167.78" y1="149.13" x2="211.11" y2="149.13"/><line class="cls-7" x1="167.78" y1="156.73" x2="211.11" y2="156.73"/><line class="cls-7" x1="167.78" y1="103.52" x2="211.11" y2="103.52"/><line class="cls-7" x1="167.78" y1="111.12" x2="211.11" y2="111.12"/><line class="cls-7" x1="167.78" y1="118.72" x2="211.11" y2="118.72"/><line class="cls-7" x1="167.78" y1="126.33" x2="211.11" y2="126.33"/><line class="cls-7" x1="167.78" y1="133.93" x2="211.11" y2="133.93"/><line class="cls-7" x1="167.78" y1="141.53" x2="211.11" y2="141.53"/><line class="cls-7" x1="167.78" y1="149.13" x2="211.11" y2="149.13"/><line class="cls-7" x1="167.78" y1="156.73" x2="211.11" y2="156.73"/><line class="cls-7" x1="167.78" y1="164.34" x2="211.11" y2="164.34"/><line class="cls-7" x1="167.78" y1="171.94" x2="211.11" y2="171.94"/><line class="cls-7" x1="167.78" y1="179.54" x2="211.11" y2="179.54"/><rect class="cls-3" x="60.97" y="75.01" width="131.52" height="158.89"/><rect class="cls-4" x="60.97" y="75.01" width="131.52" height="158.89"/><text class="cls-5" transform="translate(96.53 101.05)">Episode 2</text><polygon class="cls-6" points="103.17 95.33 99.85 95.33 99.85 93.85 103.37 93.85 103.37 91.83 97.38 91.83 97.38 101.05 103.56 101.05 103.56 99.03 99.85 99.03 99.85 97.33 103.17 97.33 103.17 95.33"/><g class="cls-2"><path class="cls-6" d="M107.31,97.28a1.12,1.12,0,0,1,0-.32,1,1,0,0,1,1-.86c.78,0,1.16.67,1.16,1.63s-.45,1.6-1.19,1.6a1,1,0,0,1-1-.81,2.48,2.48,0,0,1,0-.41Zm-2.48,6.48h2.48v-3.2h0a2,2,0,0,0,1.6.64c1.46,0,3.06-1.13,3.06-3.6,0-2.19-1.36-3.43-2.76-3.43a2.62,2.62,0,0,0-2.19,1h0l-.11-.86h-2.13c0,.63,0,1.4,0,2.3Z" transform="translate(0 0)"/><path class="cls-6" d="M114.43,93.62a1.17,1.17,0,1,0,0-2.34,1.17,1.17,0,1,0,0,2.34Zm1.23,7.43V94.32h-2.48v6.73Z" transform="translate(0 0)"/><path class="cls-6" d="M116.82,100.71a5.39,5.39,0,0,0,2.32.48c2.08,0,3.07-1,3.07-2.26,0-1-.52-1.65-1.84-2.08-.8-.26-1-.39-1-.61s.25-.39.67-.39a4,4,0,0,1,1.5.37l.39-1.67a5.29,5.29,0,0,0-2-.38c-1.77,0-2.92,1-2.92,2.31,0,.78.49,1.59,2,2,.73.24.88.33.88.58s-.21.37-.74.37a4.32,4.32,0,0,1-1.86-.51Z" transform="translate(0 0)"/><path class="cls-6" d="M126.65,99.46c-.76,0-1.08-.76-1.08-1.77s.27-1.78,1.09-1.78,1,.85,1,1.78c0,1.08-.36,1.77-1,1.77Zm0,1.74a3.39,3.39,0,0,0,3.62-3.58,3.3,3.3,0,0,0-3.5-3.45A3.4,3.4,0,0,0,123,97.74a3.33,3.33,0,0,0,3.57,3.46Z" transform="translate(0 0)"/><path class="cls-6" d="M135.76,98a1.64,1.64,0,0,1,0,.45,1,1,0,0,1-1,.81c-.67,0-1.18-.54-1.18-1.58,0-.87.37-1.61,1.2-1.61a1,1,0,0,1,1,.86c0,.1,0,.22,0,.31Zm0-6.67v3.51h0a1.91,1.91,0,0,0-1.64-.66c-1.59,0-3,1.3-3,3.57,0,2.11,1.3,3.46,2.86,3.46a2.28,2.28,0,0,0,2-1h0l.1.9h2.2c0-.45,0-1.28,0-2.12V91.32Z" transform="translate(0 0)"/><path class="cls-6" d="M141.74,96.88a1.12,1.12,0,0,1,1-1.1,1,1,0,0,1,1,1.1Zm4.19,1.67a4.64,4.64,0,0,0,.09-.93c0-1.85-.93-3.45-3.1-3.45a3.43,3.43,0,0,0-3.49,3.58c0,2.14,1.34,3.44,3.71,3.44a6.81,6.81,0,0,0,2.51-.43l-.31-1.64a6,6,0,0,1-1.83.26c-.88,0-1.66-.3-1.74-.83Z" transform="translate(0 0)"/><path class="cls-6" d="M156.23,101.05V99h-3.09v0l.87-.68a4.73,4.73,0,0,0,2.07-3.44c0-1.75-1.23-2.87-3.3-2.87a5.27,5.27,0,0,0-3.06.93l.67,1.76a3.38,3.38,0,0,1,1.9-.72c.9,0,1.33.46,1.33,1.11,0,.9-.93,1.83-2.74,3.39l-1.23,1.08v1.49Z" transform="translate(0 0)"/></g><line class="cls-7" x1="76.55" y1="118.72" x2="119.89" y2="118.72"/><line class="cls-7" x1="76.55" y1="126.33" x2="119.89" y2="126.33"/><line class="cls-7" x1="76.55" y1="133.93" x2="119.89" y2="133.93"/><line class="cls-7" x1="76.55" y1="141.53" x2="119.89" y2="141.53"/><line class="cls-7" x1="76.55" y1="149.13" x2="119.89" y2="149.13"/><line class="cls-7" x1="76.55" y1="156.73" x2="119.89" y2="156.73"/><line class="cls-7" x1="76.55" y1="164.34" x2="119.89" y2="164.34"/><line class="cls-7" x1="76.55" y1="171.94" x2="119.89" y2="171.94"/><line class="cls-7" x1="76.55" y1="179.54" x2="119.89" y2="179.54"/><line class="cls-7" x1="76.55" y1="187.14" x2="119.89" y2="187.14"/><line class="cls-7" x1="76.55" y1="194.75" x2="119.89" y2="194.75"/><line class="cls-7" x1="129.77" y1="118.72" x2="173.1" y2="118.72"/><line class="cls-7" x1="129.77" y1="126.33" x2="173.1" y2="126.33"/><line class="cls-7" x1="129.77" y1="133.93" x2="173.1" y2="133.93"/><line class="cls-7" x1="129.77" y1="141.53" x2="173.1" y2="141.53"/><line class="cls-7" x1="129.77" y1="149.13" x2="173.1" y2="149.13"/><line class="cls-7" x1="129.77" y1="156.73" x2="173.1" y2="156.73"/><line class="cls-7" x1="129.77" y1="164.34" x2="173.1" y2="164.34"/><line class="cls-7" x1="129.77" y1="171.94" x2="173.1" y2="171.94"/><line class="cls-7" x1="129.77" y1="179.54" x2="173.1" y2="179.54"/><line class="cls-7" x1="129.77" y1="187.14" x2="173.1" y2="187.14"/><line class="cls-7" x1="129.77" y1="194.75" x2="173.1" y2="194.75"/><rect class="cls-3" x="26" y="113.78" width="131.52" height="142.22"/><g class="cls-2"><rect class="cls-4" x="26" y="113.78" width="131.52" height="158.89"/></g><text class="cls-5" transform="translate(61.56 139.82)">Episode 3</text><polygon class="cls-6" points="68.2 134.1 64.88 134.1 64.88 132.62 68.4 132.62 68.4 130.6 62.41 130.6 62.41 139.82 68.59 139.82 68.59 137.8 64.88 137.8 64.88 136.1 68.2 136.1 68.2 134.1"/><g class="cls-2"><path class="cls-6" d="M72.34,136.05a1.12,1.12,0,0,1,0-.32,1,1,0,0,1,1-.86c.78,0,1.16.67,1.16,1.63s-.45,1.6-1.19,1.6a1,1,0,0,1-1-.81,2.48,2.48,0,0,1,0-.41Zm-2.47,6.48h2.47v-3.2h0A2,2,0,0,0,74,140c1.46,0,3.07-1.13,3.07-3.6,0-2.18-1.37-3.43-2.77-3.43a2.62,2.62,0,0,0-2.19,1h0l-.1-.86H69.81c0,.63.06,1.4.06,2.3Z" transform="translate(0 0)"/><path class="cls-6" d="M79.46,132.39a1.17,1.17,0,1,0,0-2.34,1.17,1.17,0,1,0,0,2.34Zm1.23,7.43v-6.73H78.21v6.73Z" transform="translate(0 0)"/><path class="cls-6" d="M81.85,139.48a5.24,5.24,0,0,0,2.32.48c2.08,0,3.07-1,3.07-2.26,0-1-.52-1.65-1.84-2.08-.8-.26-1-.39-1-.61s.25-.39.67-.39a4,4,0,0,1,1.5.37l.39-1.67a5.29,5.29,0,0,0-2-.38c-1.77,0-2.92,1-2.92,2.31,0,.78.49,1.59,2,2.06.73.23.88.32.88.57s-.21.37-.74.37a4.32,4.32,0,0,1-1.86-.51Z" transform="translate(0 0)"/><path class="cls-6" d="M91.68,138.24c-.75,0-1.08-.77-1.08-1.78s.27-1.78,1.09-1.78,1,.85,1,1.78-.36,1.78-1,1.78Zm0,1.73a3.39,3.39,0,0,0,3.62-3.58,3.3,3.3,0,0,0-3.5-3.45,3.4,3.4,0,0,0-3.71,3.57A3.33,3.33,0,0,0,91.62,140Z" transform="translate(0 0)"/><path class="cls-6" d="M100.79,136.76a1.64,1.64,0,0,1,0,.45,1,1,0,0,1-1,.81c-.67,0-1.18-.54-1.18-1.58,0-.87.37-1.61,1.2-1.61a1,1,0,0,1,1,.86c0,.1,0,.22,0,.32Zm0-6.67v3.51h0a1.91,1.91,0,0,0-1.64-.66c-1.59,0-3,1.3-3,3.57,0,2.11,1.3,3.46,2.86,3.46a2.28,2.28,0,0,0,2-1.05h0l.1.9h2.2c0-.45,0-1.28,0-2.12v-7.61Z" transform="translate(0 0)"/><path class="cls-6" d="M106.77,135.65a1.13,1.13,0,0,1,1-1.1,1,1,0,0,1,1,1.1Zm4.19,1.67a4.64,4.64,0,0,0,.09-.93c0-1.85-.93-3.45-3.1-3.45a3.43,3.43,0,0,0-3.49,3.59c0,2.13,1.34,3.43,3.71,3.43a7,7,0,0,0,2.51-.42l-.31-1.65a5.71,5.71,0,0,1-1.83.26c-.88,0-1.66-.3-1.74-.83Z" transform="translate(0 0)"/><path class="cls-6" d="M114.61,139.34a5.6,5.6,0,0,0,2.79.63c2.3,0,3.81-1.1,3.81-2.75a2.15,2.15,0,0,0-1.91-2.1v0a2.11,2.11,0,0,0,1.63-2.05c0-1.28-1.16-2.26-3.13-2.26a6.23,6.23,0,0,0-2.93.67l.47,1.76a4.49,4.49,0,0,1,1.9-.5c.77,0,1.19.3,1.19.75,0,.62-.78.81-1.4.81h-.87V136h.93c.81,0,1.56.34,1.56,1.07s-.58.94-1.45.94a5.29,5.29,0,0,1-2.12-.53Z" transform="translate(0 0)"/></g><line class="cls-7" x1="41.58" y1="157.49" x2="84.92" y2="157.49"/><line class="cls-7" x1="41.58" y1="165.1" x2="84.92" y2="165.1"/><line class="cls-7" x1="41.58" y1="172.7" x2="84.92" y2="172.7"/><line class="cls-7" x1="41.58" y1="180.3" x2="84.92" y2="180.3"/><line class="cls-7" x1="41.58" y1="187.9" x2="84.92" y2="187.9"/><line class="cls-7" x1="41.58" y1="195.51" x2="84.92" y2="195.51"/><line class="cls-7" x1="41.58" y1="203.11" x2="84.92" y2="203.11"/><line class="cls-7" x1="41.58" y1="210.71" x2="84.92" y2="210.71"/><line class="cls-7" x1="41.58" y1="218.31" x2="84.92" y2="218.31"/><line class="cls-7" x1="41.58" y1="225.91" x2="84.92" y2="225.91"/><line class="cls-7" x1="41.58" y1="233.52" x2="84.92" y2="233.52"/><line class="cls-7" x1="94.8" y1="157.49" x2="138.13" y2="157.49"/><line class="cls-7" x1="94.8" y1="165.1" x2="138.13" y2="165.1"/><line class="cls-7" x1="94.8" y1="172.7" x2="138.13" y2="172.7"/><line class="cls-7" x1="94.8" y1="180.3" x2="138.13" y2="180.3"/><line class="cls-7" x1="94.8" y1="187.9" x2="138.13" y2="187.9"/><line class="cls-7" x1="94.8" y1="195.51" x2="138.13" y2="195.51"/><line class="cls-7" x1="94.8" y1="203.11" x2="138.13" y2="203.11"/><line class="cls-7" x1="94.8" y1="210.71" x2="138.13" y2="210.71"/><line class="cls-7" x1="94.8" y1="218.31" x2="138.13" y2="218.31"/><line class="cls-7" x1="94.8" y1="225.91" x2="138.13" y2="225.91"/><line class="cls-7" x1="94.8" y1="233.52" x2="138.13" y2="233.52"/></g></g></g></g></svg>